<?xml version="1.0" encoding="UTF-8"?>
<svg version="1.1" xmlns="http://www.w3.org/2000/svg" width="512" height="512">
<path d="M0 0 C6.93434039 3.82438136 13.95964811 7.39151373 21.07397461 10.86962891 C21.07397461 3.93962891 21.07397461 -2.99037109 21.07397461 -10.13037109 C43.51397461 -10.13037109 65.95397461 -10.13037109 89.07397461 -10.13037109 C89.07397461 44.64962891 89.07397461 99.42962891 89.07397461 155.86962891 C66.63397461 155.86962891 44.19397461 155.86962891 21.07397461 155.86962891 C21.07397461 148.60962891 21.07397461 141.34962891 21.07397461 133.86962891 C18.80425781 133.91676025 16.53454102 133.9638916 14.19604492 134.01245117 C6.65677317 134.16226576 -0.88256821 134.26126091 -8.4229393 134.33593845 C-12.99036807 134.38270662 -17.55625895 134.44602846 -22.12280273 134.54858398 C-26.53851435 134.6471198 -30.95275695 134.70033935 -35.36948395 134.72352409 C-37.04561722 134.74002282 -38.72167932 134.77224092 -40.39717865 134.82119942 C-52.60772715 135.16346819 -58.91301473 133.3115481 -67.92602539 124.86962891 C-69.41763969 123.69242619 -70.91921254 122.52752412 -72.43774414 121.38525391 C-73.83036311 120.29759755 -75.22228363 119.20904634 -76.61352539 118.11962891 C-82.52692831 113.50416781 -88.46041497 108.91740679 -94.42602539 104.36962891 C-101.13714843 99.25203596 -107.80848119 94.08526495 -114.46582031 88.89794922 C-118.88021283 85.45891348 -123.30145556 82.02936001 -127.73852539 78.61962891 C-129.26799805 77.44400391 -129.26799805 77.44400391 -130.82836914 76.24462891 C-133.00592338 74.57507913 -135.18550974 72.90844376 -137.36743164 71.24462891 C-139.60279342 69.53954216 -141.8288661 67.82346929 -144.04711914 66.09619141 C-145.70580279 64.81335602 -147.37842229 63.54730634 -149.08618164 62.33056641 C-155.42542968 57.56568107 -158.96189735 50.41237336 -160.59008789 42.74072266 C-161.29075806 36.36136519 -160.45832244 31.04926661 -158.92602539 24.86962891 C-169.66327408 29.57311395 -180.27156261 34.46415299 -190.73852539 39.74462891 C-207.05151635 47.97286711 -223.54397665 55.79727228 -240.11352539 63.49462891 C-241.23098145 64.01605469 -242.3484375 64.53748047 -243.49975586 65.07470703 C-244.54147949 65.55617188 -245.58320313 66.03763672 -246.65649414 66.53369141 C-247.57841553 66.96117676 -248.50033691 67.38866211 -249.45019531 67.82910156 C-257.1767691 71.07638067 -265.76471203 70.88906381 -273.67602539 68.30712891 C-279.04883691 66.10845676 -282.98148289 63.09271541 -286.92602539 58.86962891 C-287.41973633 58.34626953 -287.91344727 57.82291016 -288.42211914 57.28369141 C-293.62961115 50.948167 -295.3026145 42.41961657 -294.98852539 34.36962891 C-293.68227284 24.84086028 -289.20129302 17.21613901 -281.96069336 11.02319336 C-275.25846796 6.26693188 -267.65565159 3.0370837 -260.23852539 -0.44287109 C-257.48128976 -1.75662554 -254.72665271 -3.07572221 -251.97216797 -4.39523315 C-250.08835878 -5.29738469 -248.20374885 -6.19786598 -246.31835938 -7.09671021 C-237.6267923 -11.24723129 -229.02909698 -15.57369042 -220.43658447 -19.92453003 C-132.46459816 -64.39219148 -82.71766946 -45.66664423 0 0 Z " fill="#FFCDBE" transform="translate(422.926025390625,55.13037109375)"/>
<path d="M0 0 C22.44 0 44.88 0 68 0 C68 7.26 68 14.52 68 22 C71.4045752 21.92930298 71.4045752 21.92930298 74.87792969 21.85717773 C82.41720144 21.70736314 89.95654282 21.60836799 97.49691391 21.53369045 C102.06434268 21.48692229 106.63023356 21.42360044 111.19677734 21.32104492 C115.61248896 21.2225091 120.02673156 21.16928955 124.44345856 21.14610481 C126.11959183 21.12960609 127.79565393 21.09738798 129.47115326 21.04842949 C141.68170176 20.70616072 147.98698934 22.5580808 157 31 C158.49161455 32.17720241 159.99318843 33.34210308 161.51171875 34.484375 C162.90433019 35.572041 164.29625158 36.66059108 165.6875 37.75 C171.70622365 42.4471029 177.74396787 47.11741193 183.8125 51.75 C184.52051758 52.29052002 185.22853516 52.83104004 185.95800781 53.38793945 C187.33360432 54.43789697 188.70925358 55.48778538 190.08496094 56.53759766 C198.86949529 63.24582825 207.60467973 70.0166772 216.32324219 76.81030273 C220.37970029 79.96941003 224.44544686 83.11505819 228.53295898 86.23388672 C230.12652333 87.4533385 231.71187619 88.6834981 233.296875 89.9140625 C234.89097824 91.14419419 236.50011057 92.35591811 238.140625 93.5234375 C244.48827039 98.29797077 248.03265965 105.44211988 249.6640625 113.12890625 C250.36473267 119.50826371 249.53229705 124.8203623 248 131 C258.73724869 126.29651495 269.34553722 121.40547592 279.8125 116.125 C296.12549096 107.89676179 312.61795126 100.07235662 329.1875 92.375 C330.30495605 91.85357422 331.42241211 91.33214844 332.57373047 90.79492188 C333.6154541 90.31345703 334.65717773 89.83199219 335.73046875 89.3359375 C337.11335083 88.69470947 337.11335083 88.69470947 338.52416992 88.04052734 C346.25074371 84.79324823 354.83868664 84.9805651 362.75 87.5625 C368.12281152 89.76117215 372.0554575 92.7769135 376 97 C376.74056641 97.78503906 376.74056641 97.78503906 377.49609375 98.5859375 C382.70358576 104.9214619 384.37658911 113.45001234 384.0625 121.5 C382.52058939 132.74783217 376.68398331 140.17807401 368 147 C364.76364263 149.00352691 361.41124933 150.64035224 357.96484375 152.25 C357.02095291 152.7059404 356.07706207 153.1618808 355.10456848 153.63163757 C352.05518347 155.10132879 348.99659641 156.55064779 345.9375 158 C343.81139926 159.0202774 341.68607941 160.04218359 339.56152344 161.06567383 C336.36992851 162.6031469 333.17795999 164.13974272 329.98330688 165.67085266 C321.82806335 169.58207997 313.74160056 173.615882 305.6774292 177.71072388 C266.84624961 197.38945919 228.30299935 216.54817797 184.5 202.5 C155.42734826 192.66119592 127.99044231 176.73579866 101.01953125 162.25390625 C100.40578644 161.9245256 99.79204163 161.59514496 99.15969849 161.25578308 C96.11960485 159.6240545 93.08073853 157.9901657 90.04394531 156.35229492 C82.75822836 152.43390426 75.4161314 148.66589664 68 145 C68 151.93 68 158.86 68 166 C45.56 166 23.12 166 0 166 C0 111.22 0 56.44 0 0 Z " fill="#FFCDBE" transform="translate(0,301)"/>
<path d="M0 0 C15.4539122 13.15997211 30.21815168 26.95216209 40 44.94140625 C40.48980347 45.83835205 40.48980347 45.83835205 40.98950195 46.75341797 C43.89318953 52.35973887 45.77628052 58.32885164 45.8125 64.69140625 C45.82925781 65.37332031 45.84601563 66.05523437 45.86328125 66.7578125 C44.89921954 73.05012928 41.1408727 78.83422173 38.0625 84.31640625 C37.41704224 85.46641113 37.41704224 85.46641113 36.75854492 86.63964844 C35.34661236 89.14045492 33.92443383 91.63520121 32.5 94.12890625 C31.99662109 95.01594238 31.49324219 95.90297852 30.97460938 96.81689453 C29.43634327 99.51369753 27.87769729 102.19765955 26.3125 104.87890625 C25.83820557 105.71188232 25.36391113 106.5448584 24.87524414 107.40307617 C20.35460294 115.04590923 15.39175839 120.12388272 6.75 122.60546875 C-38.09096068 133.03722002 -92.68899221 102.97981717 -129.18164062 80.47412109 C-137.26963419 75.4005376 -144.99090002 70.03036694 -152.5 64.12890625 C-153.62671228 63.26836224 -154.75435947 62.4090413 -155.8828125 61.55078125 C-164.19536031 55.18487181 -171.94495166 48.37238131 -179.5 41.12890625 C-180.4590625 40.22269531 -181.418125 39.31648438 -182.40625 38.3828125 C-191.43651621 29.64425433 -199.00255872 20.36687529 -205 9.31640625 C-205.32637451 8.71860352 -205.65274902 8.12080078 -205.98901367 7.50488281 C-208.89334199 1.89876384 -210.77628024 -4.07098902 -210.8125 -10.43359375 C-210.82925781 -11.11550781 -210.84601563 -11.79742187 -210.86328125 -12.5 C-209.68301373 -20.20346648 -204.57549673 -27.33382835 -200.8125 -33.99609375 C-199.8697522 -35.6663562 -199.8697522 -35.6663562 -198.90795898 -37.37036133 C-197.11185772 -40.54105589 -195.30751176 -43.70689361 -193.5 -46.87109375 C-193.06365234 -47.6408252 -192.62730469 -48.41055664 -192.17773438 -49.20361328 C-186.85102327 -58.54835733 -182.31793527 -65.30704082 -171.67578125 -68.34765625 C-114.55642548 -82.08911706 -41.38475875 -34.4257145 0 0 Z " fill="#FECC3C" transform="translate(338.5,228.87109375)"/>
<path d="M0 0 C0.33 0 0.66 0 1 0 C0.99097656 0.6084375 0.98195312 1.216875 0.97265625 1.84375 C1.64725654 21.78845417 15.74822208 38.37450905 29 52 C29.52674316 52.54720703 30.05348633 53.09441406 30.59619141 53.65820312 C37.34910221 60.65408217 44.1936785 67.17361738 52 73 C52.65178223 73.49580566 53.30356445 73.99161133 53.97509766 74.50244141 C95.38914428 105.99255407 154.69298345 142.53925717 209 138 C216.66818161 136.86245758 223.26571601 134.82929874 230 131 C227.6974692 137.10142888 224.42915219 142.63403499 221.25 148.3125 C220.6415625 149.41529297 220.033125 150.51808594 219.40625 151.65429688 C208.13875784 171.81781115 208.13875784 171.81781115 196.3203125 175.40625 C154.68165443 186.06126015 102.43957854 158.10526747 68 138 C57.21506083 131.57871062 46.87153417 124.75811628 37 117 C35.87328772 116.13945599 34.74564053 115.28013505 33.6171875 114.421875 C25.30463969 108.05596556 17.55504834 101.24347506 10 94 C9.0409375 93.09378906 8.081875 92.18757813 7.09375 91.25390625 C-1.93651621 82.51534808 -9.50255872 73.23796904 -15.5 62.1875 C-15.98956177 61.2907959 -15.98956177 61.2907959 -16.48901367 60.37597656 C-19.39334199 54.76985759 -21.27628024 48.80010473 -21.3125 42.4375 C-21.32925781 41.75558594 -21.34601563 41.07367188 -21.36328125 40.37109375 C-20.15876909 32.50938536 -14.89835181 25.23436023 -11.0625 18.4375 C-10.44181641 17.32697266 -9.82113281 16.21644531 -9.18164062 15.07226562 C-3.10170371 4.25269737 -3.10170371 4.25269737 0 0 Z " fill="#FD9923" transform="translate(149,176)"/>
<path d="M0 0 C22.44 0 44.88 0 68 0 C68 54.78 68 109.56 68 166 C45.56 166 23.12 166 0 166 C0 111.22 0 56.44 0 0 Z " fill="#435469" transform="translate(0,301)"/>
<path d="M0 0 C22.44 0 44.88 0 68 0 C68 54.78 68 109.56 68 166 C45.56 166 23.12 166 0 166 C0 111.22 0 56.44 0 0 Z " fill="#435469" transform="translate(444,45)"/>
<path d="M0 0 C87.89101993 44.6730598 87.89101993 44.6730598 99 78 C99.72630529 84.92783505 99.72630529 84.92783505 97.6875 87.9375 C91.01071716 92.14140031 81.0456525 90.43886082 73.75 88.8125 C71.49565339 88.22475963 69.2457944 87.6196167 67 87 C65.7728125 86.69449219 64.545625 86.38898438 63.28125 86.07421875 C49.90752004 82.59985753 37.48445264 76.83378314 25 71 C24.05431152 70.55881836 23.10862305 70.11763672 22.13427734 69.66308594 C-10.22290259 54.40167567 -41.03859677 34.70758546 -67 10 C-67.825 9.23945313 -68.65 8.47890625 -69.5 7.6953125 C-75.50756848 1.99218161 -83.50004996 -6.25057452 -84.25 -14.875 C-83.9728981 -18.33877379 -83.42730771 -19.57269229 -81 -22 C-56.19086181 -30.26971273 -21.40506861 -10.60512584 0 0 Z " fill="#FEA832" transform="translate(259,204)"/>
<path d="M0 0 C2.85972567 1.33522358 5.25532618 2.84702362 7.73046875 4.80078125 C8.44203125 5.35894531 9.15359375 5.91710937 9.88671875 6.4921875 C11.02560547 7.39324219 11.02560547 7.39324219 12.1875 8.3125 C13.81591827 9.59046579 15.44483603 10.86779534 17.07421875 12.14453125 C17.89841309 12.79115723 18.72260742 13.4377832 19.57177734 14.10400391 C23.1927604 16.93132689 26.84470618 19.71726573 30.5 22.5 C35.6562698 26.42727073 40.78411757 30.38740659 45.88549805 34.38574219 C52.09692814 39.24737694 58.32603595 44.08561905 64.6875 48.75 C65.74324219 49.52859375 66.79898438 50.3071875 67.88671875 51.109375 C73.46134738 54.49472037 79.51076174 55.93370335 86 55 C91.18296838 53.56571944 95.26684969 51.74189955 99.2578125 48.125 C103.08796891 44.7359673 107.16740854 42.69575196 111.8125 40.625 C112.57498047 40.27050781 113.33746094 39.91601562 114.12304688 39.55078125 C119.69241675 37 119.69241675 37 122 37 C119.46362542 47.45698291 114.79801904 57.39342893 106 64 C94.34832479 70.68836421 83.41530822 72.67211751 70.12890625 70.5390625 C61.13747353 67.81438592 53.5035691 60.97881159 46.25 55.25 C44.66818452 54.01014133 43.086152 52.77055952 41.50390625 51.53125 C40.7370752 50.92925781 39.97024414 50.32726562 39.18017578 49.70703125 C36.19599826 47.37048374 33.19453126 45.05701857 30.1875 42.75 C29.15367187 41.9559375 28.11984375 41.161875 27.0546875 40.34375 C26.04664063 39.5703125 25.03859375 38.796875 24 38 C21.93708821 36.41720323 19.8745985 34.8338562 17.8125 33.25 C17.29671387 32.85401611 16.78092773 32.45803223 16.24951172 32.05004883 C12.90532993 29.47833584 9.57450614 26.890074 6.25 24.29296875 C5.43297607 23.65520508 4.61595215 23.01744141 3.77416992 22.36035156 C2.15334743 21.0943 0.53368677 19.82675941 -1.0847168 18.55761719 C-1.82375244 17.98043945 -2.56278809 17.40326172 -3.32421875 16.80859375 C-3.98510498 16.29095459 -4.64599121 15.77331543 -5.3269043 15.23999023 C-6.98897013 13.93331624 -6.98897013 13.93331624 -9 13 C-7.47987323 7.59510481 -3.72614782 4.01507372 0 0 Z " fill="#FFB09E" transform="translate(146,387)"/>
<path d="M0 0 C4.2567293 2.98147469 8.26595742 6.25149277 12.26074219 9.57128906 C14.97672302 11.80232778 17.767601 13.93178561 20.5625 16.0625 C21.63690492 16.88647605 22.71112406 17.71069441 23.78515625 18.53515625 C24.58010498 19.14447998 24.58010498 19.14447998 25.39111328 19.76611328 C27.55317999 21.42424457 29.71271795 23.08565066 31.87207031 24.74731445 C32.95848928 25.58330961 34.04507822 26.41908393 35.13183594 27.25463867 C37.80506019 29.31001016 40.47620644 31.36795081 43.14453125 33.4296875 C51.7004136 40.03714828 60.33987484 46.52991933 69 53 C67.68302856 56.79793279 66.08343619 59.35328268 63.375 62.3125 C62.74335938 63.00988281 62.11171875 63.70726563 61.4609375 64.42578125 C60.97882813 64.94527344 60.49671875 65.46476562 60 66 C54.58144817 63.10496519 50.01238614 59.75257601 45.3125 55.8125 C39.60980301 51.10443651 33.84461748 46.5591159 27.90234375 42.15625 C24.87032853 39.90366265 21.86917175 37.61513395 18.875 35.3125 C18.34970703 34.9098291 17.82441406 34.5071582 17.28320312 34.09228516 C14.00416169 31.57106233 10.75764521 29.01310723 7.52734375 26.4296875 C6.74697754 25.81053467 5.96661133 25.19138184 5.16259766 24.5534668 C3.64205962 23.34616655 2.12700302 22.13191637 0.61865234 20.90942383 C-6.88417416 14.97342884 -14.39357249 10.02319666 -24.26171875 10.51171875 C-30.29444931 11.5874553 -35.17600873 14.40173738 -39.74609375 18.40625 C-43.37623535 21.50021917 -47.42860769 23.35934927 -51.75 25.3125 C-52.51699219 25.67150391 -53.28398437 26.03050781 -54.07421875 26.40039062 C-59.70918155 29 -59.70918155 29 -62 29 C-59.15837996 17.28454898 -53.67789864 6.82049886 -43.25 0.2734375 C-30.12707681 -7.0907561 -13.13219537 -8.22096784 0 0 Z " fill="#FFB09E" transform="translate(306,59)"/>
<path d="M0 0 C4.95 0 9.9 0 15 0 C15 6.6 15 13.2 15 20 C21.6 20 28.2 20 35 20 C35 25.28 35 30.56 35 36 C28.4 36 21.8 36 15 36 C15 42.6 15 49.2 15 56 C10.05 56 5.1 56 0 56 C0 49.4 0 42.8 0 36 C-6.6 36 -13.2 36 -20 36 C-20 30.72 -20 25.44 -20 20 C-13.4 20 -6.8 20 0 20 C0 13.4 0 6.8 0 0 Z " fill="#FEA732" transform="translate(427,244)"/>
<path d="M0 0 C4.95 0 9.9 0 15 0 C15 6.6 15 13.2 15 20 C21.6 20 28.2 20 35 20 C35 24.95 35 29.9 35 35 C28.4 35 21.8 35 15 35 C15 41.6 15 48.2 15 55 C10.05 55 5.1 55 0 55 C0 48.4 0 41.8 0 35 C-6.6 35 -13.2 35 -20 35 C-20 30.05 -20 25.1 -20 20 C-13.4 20 -6.8 20 0 20 C0 13.4 0 6.8 0 0 Z " fill="#FDA832" transform="translate(66,176)"/>
<path d="M0 0 C3.57770548 1.38297859 6.74845193 2.95616979 10 5 C8.3003494 9.73474097 5.86340973 13.96167111 3.375 18.3125 C2.95476562 19.05306641 2.53453125 19.79363281 2.1015625 20.55664062 C1.07051505 22.37269011 0.03563954 24.18656533 -1 26 C-7.85391171 19.15734266 -7.85391171 19.15734266 -9 17 C-7.70374503 12.91070947 -5.55597377 9.36284469 -3.375 5.6875 C-2.74335938 4.61886719 -2.11171875 3.55023438 -1.4609375 2.44921875 C-0.97882813 1.64097656 -0.49671875 0.83273438 0 0 Z " fill="#CA5B28" transform="translate(147,229)"/>
<path d="M0 0 C3.57770548 1.38297859 6.74845193 2.95616979 10 5 C9.09476787 9.2002771 7.09717906 12.57966461 4.9375 16.25 C4.56044922 16.8996875 4.18339844 17.549375 3.79492188 18.21875 C2.86765885 19.81505091 1.93441544 21.40787529 1 23 C-3.71906188 23 -5.27037031 21.71245796 -9 19 C-8.42334609 14.2128572 -6.35917004 10.74871176 -3.9375 6.6875 C-3.56044922 6.04232422 -3.18339844 5.39714844 -2.79492188 4.73242188 C-1.86962507 3.15121848 -0.93567319 1.5750854 0 0 Z " fill="#CA5B28" transform="translate(209,284)"/>
<path d="M0 0 C3.95008059 0.68379546 6.63457018 1.78843183 10 4 C9.46323088 9.0261109 7.05581499 12.62239409 4.4375 16.8125 C4.01275391 17.50537109 3.58800781 18.19824219 3.15039062 18.91210938 C2.10690544 20.61216951 1.05434704 22.30665476 0 24 C-3.40212299 22.38617243 -6.10324519 20.41396234 -9 18 C-7.65072455 13.46152802 -5.80840652 9.68067754 -3.375 5.625 C-2.74335938 4.56539063 -2.11171875 3.50578125 -1.4609375 2.4140625 C-0.73777344 1.21910156 -0.73777344 1.21910156 0 0 Z " fill="#CA5B28" transform="translate(176,260)"/>
<path d="M0 0 C3.95008059 0.68379546 6.63457018 1.78843183 10 4 C9.45207105 8.6182583 7.41035512 11.98149647 4.9375 15.8125 C4.37192383 16.7087207 4.37192383 16.7087207 3.79492188 17.62304688 C2.87010434 19.08636577 1.93597935 20.54379523 1 22 C-6.65178571 21.00892857 -6.65178571 21.00892857 -10 19 C-8.40376856 14.60616294 -6.21975667 10.71004193 -3.875 6.6875 C-3.50246094 6.04232422 -3.12992187 5.39714844 -2.74609375 4.73242188 C-1.83367787 3.15324055 -0.91724491 1.57638136 0 0 Z " fill="#CA5B28" transform="translate(282,321)"/>
<path d="M0 0 C3.98467756 0.82292254 6.67947232 2.66053731 10 5 C8.83085473 10.94676362 5.92923587 16.42997477 2 21 C-2.18749993 22.30624998 -6.07707299 21.9614635 -10 20 C-8.56347895 15.08558588 -6.45840385 10.99761642 -3.875 6.625 C-3.50246094 5.98433594 -3.12992187 5.34367187 -2.74609375 4.68359375 C-1.83565998 3.11951523 -0.91851809 1.55934466 0 0 Z " fill="#CA5B28" transform="translate(323,331)"/>
<path d="M0 0 C4.51478398 0.53115106 7.34666857 2.36620292 11 5 C10.44570312 5.96421875 9.89140625 6.9284375 9.3203125 7.921875 C8.58848403 9.19788361 7.8567164 10.47392712 7.125 11.75 C6.76019531 12.38421875 6.39539063 13.0184375 6.01953125 13.671875 C4.2603169 16.74250368 2.53126626 19.80851875 1 23 C-2.48670834 21.8905928 -5.77484237 20.73662334 -9 19 C-8.42334609 14.2128572 -6.35917004 10.74871176 -3.9375 6.6875 C-3.56044922 6.04232422 -3.18339844 5.39714844 -2.79492188 4.73242188 C-1.86962507 3.15121848 -0.93567319 1.5750854 0 0 Z " fill="#CA5B28" transform="translate(244,305)"/>
</svg>
