<?xml version="1.0" encoding="UTF-8"?>
<svg version="1.1" xmlns="http://www.w3.org/2000/svg" width="392" height="494">
<path d="M0 0 C1.06742935 -0.0071553 2.1348587 -0.01431061 3.2346344 -0.02168274 C6.76712767 -0.03860099 10.29835631 -0.01913287 13.83081055 0.00219727 C16.29640304 0.00136819 18.76199548 -0.00109264 21.22758484 -0.00511169 C26.4035195 -0.00797274 31.57902226 0.00675042 36.75488281 0.03417969 C43.35051329 0.06806568 49.94536147 0.06231236 56.54102802 0.04351711 C61.63985048 0.03287645 66.73849525 0.04195208 71.83730125 0.05690193 C74.26627256 0.0620458 76.69526274 0.06164865 79.12423134 0.05535698 C95.46460068 0.02894589 111.03248884 0.44941623 125.7800293 8.38110352 C126.44083496 8.72544434 127.10164063 9.06978516 127.7824707 9.42456055 C133.55323392 12.5264692 138.57953507 16.19197765 143.4050293 20.63110352 C144.23389648 21.36844727 145.06276367 22.10579102 145.91674805 22.86547852 C162.2283831 38.15295272 171.54315063 59.87998716 172.56518555 82.11547852 C173.12884309 101.12826314 167.37403149 117.18346679 160.4050293 134.63110352 C160.88278809 135.15349609 161.36054688 135.67588867 161.8527832 136.21411133 C162.48104004 136.91375 163.10929687 137.61338867 163.7565918 138.33422852 C164.37872559 139.02162109 165.00085938 139.70901367 165.6418457 140.41723633 C171.53623587 147.81827899 173.08832895 156.41921184 172.4050293 165.63110352 C170.54178175 177.63168094 165.18002697 188.17689932 155.4050293 195.63110352 C144.02041391 202.63110352 144.02041391 202.63110352 137.4050293 202.63110352 C137.2400293 203.78610352 137.0750293 204.94110352 136.9050293 206.13110352 C133.39257638 221.81346373 122.86319041 235.84827947 111.4050293 246.63110352 C119.25655229 248.80391996 127.11317017 250.84285537 135.0690918 252.59594727 C135.80214539 252.75825836 136.53519897 252.92056946 137.29046631 253.08779907 C140.29050738 253.75018243 143.29105974 254.40967248 146.29467773 255.05566406 C170.34525772 260.24686685 191.36989398 269.42780895 205.4050293 290.63110352 C208.86582018 296.59681551 212.38359469 302.7396523 213.4050293 309.63110352 C214.4981543 309.21860352 215.5912793 308.80610352 216.7175293 308.38110352 C217.33241211 308.14907227 217.94729492 307.91704102 218.58081055 307.67797852 C220.94047353 306.32382502 221.95655092 304.93187251 223.4050293 302.63110352 C223.84524293 300.29812912 223.84524293 300.29812912 223.77392578 297.77416992 C223.78080917 296.81282135 223.78769257 295.85147278 223.79478455 294.86099243 C223.7855471 293.31247086 223.7855471 293.31247086 223.77612305 291.73266602 C223.79350614 289.53995613 223.81109051 287.34724783 223.82885742 285.15454102 C223.83892901 281.70268823 223.84252674 278.25093914 223.84082031 274.79907227 C223.84439347 271.46412306 223.87175027 268.12997291 223.90112305 264.79516602 C223.88884926 263.25271713 223.88884926 263.25271713 223.87632751 261.67910767 C223.93848979 255.68526709 224.37027993 252.17345186 228.4050293 247.63110352 C232.10677669 245.16327192 235.10996405 244.95037619 239.4050293 245.63110352 C244.9050293 248.63110352 244.9050293 248.63110352 246.4050293 251.63110352 C246.52610559 253.35400528 246.58503597 255.08143782 246.61376953 256.80834961 C246.63306015 257.89062836 246.65235077 258.9729071 246.67222595 260.08798218 C246.73010819 265.07481577 246.77932014 270.06150315 246.81005859 275.04858398 C246.83155994 277.66916139 246.86556764 280.28966853 246.91259766 282.90991211 C246.97999713 286.70011292 247.00713304 290.48882326 247.02612305 294.27954102 C247.06786903 296.01462418 247.06786903 296.01462418 247.11045837 297.78475952 C247.08697175 307.21325241 244.5567635 315.06285715 238.12889099 322.1355896 C232.84700156 327.16491994 227.87873984 330.63110352 220.4050293 330.63110352 C220.76330811 331.86038574 221.12158691 333.08966797 221.49072266 334.35620117 C222.83368896 338.97799556 224.15796522 343.6049815 225.47705078 348.23364258 C226.04726911 350.22498332 226.62234863 352.21493945 227.20263672 354.20336914 C233.07245143 374.34002428 236.50076475 392.07580224 226.4050293 411.63110352 C224.57715976 414.46453624 222.5612668 417.04361851 220.4050293 419.63110352 C219.5387793 420.89954102 219.5387793 420.89954102 218.6550293 422.19360352 C209.45841139 432.15660625 196.25507803 437.89892846 182.85124969 438.8034358 C175.26531437 439.09326762 167.67481149 439.03955273 160.0847168 439.01928711 C157.52264177 439.023357 154.96056851 439.02870121 152.39849854 439.03521729 C146.18682788 439.04743469 139.97529992 439.04570472 133.76362753 439.03697936 C128.71112268 439.03017867 123.65864826 439.02929635 118.60614014 439.03255081 C117.52369532 439.03324036 117.52369532 439.03324036 116.41938293 439.03394384 C114.95298337 439.0349031 113.48658382 439.03587575 112.02018428 439.03686161 C98.2994978 439.04539737 84.57887165 439.03560996 70.85819507 439.01946051 C59.10880233 439.00605898 47.35949855 439.00838758 35.61010742 439.0222168 C21.93542329 439.03830479 8.2607919 439.04457356 -5.41390038 439.03538001 C-6.87462742 439.03442445 -8.33535448 439.03348134 -9.79608154 439.03255081 C-10.87388073 439.03185657 -10.87388073 439.03185657 -11.97345364 439.03114831 C-17.01448094 439.02856805 -22.05547451 439.03290849 -27.09649658 439.03998947 C-33.89280005 439.04932704 -40.68891066 439.04259161 -47.4852066 439.0253067 C-49.97276787 439.02135518 -52.46034332 439.0224529 -54.94789886 439.0290947 C-76.83566329 439.08212721 -94.06848579 437.52293079 -110.5949707 421.63110352 C-120.71689259 410.00328365 -125.31958334 395.51437108 -124.39637756 380.25083923 C-123.54314809 370.29311912 -120.33073474 360.74010805 -117.5324707 351.19360352 C-116.95751492 349.19074626 -116.3839371 347.1874929 -115.81176758 345.18383789 C-114.42199023 340.3282201 -113.01375421 335.47832138 -111.5949707 330.63110352 C-112.6996167 330.4901123 -113.8042627 330.34912109 -114.94238281 330.20385742 C-122.14339898 329.07468264 -127.85571326 324.16720873 -132.3137207 318.54516602 C-138.34069215 309.54145867 -138.74959611 300.20926145 -138.76293945 289.68969727 C-138.76626785 288.76318863 -138.76959625 287.83667999 -138.77302551 286.88209534 C-138.77806039 284.93491102 -138.78043491 282.98771817 -138.78027344 281.04052734 C-138.78246684 278.07383012 -138.80067808 275.10750111 -138.81958008 272.14086914 C-138.82251341 270.24047978 -138.82449861 268.34008866 -138.82543945 266.43969727 C-138.83262497 265.56035019 -138.83981049 264.68100311 -138.84721375 263.77500916 C-138.82842761 258.67923101 -138.40560272 254.41780091 -136.5949707 249.63110352 C-133.41477958 246.67806891 -130.81343734 245.38197302 -126.5324707 245.13110352 C-122.15647871 245.68678504 -120.58896658 246.46099023 -117.5949707 249.63110352 C-115.7388873 252.68245553 -115.34487933 254.95355086 -115.33959961 258.50390625 C-115.33264069 259.46848251 -115.32568176 260.43305878 -115.31851196 261.42686462 C-115.31950897 262.4623494 -115.32050598 263.49783417 -115.3215332 264.56469727 C-115.30124717 266.76196801 -115.28039645 268.9592336 -115.2590332 271.15649414 C-115.23641561 274.61723181 -115.21995523 278.07776598 -115.21411133 281.53857422 C-115.20459624 284.88098835 -115.17083313 288.2224878 -115.1340332 291.56469727 C-115.13907867 292.59815781 -115.14412415 293.63161835 -115.14932251 294.69639587 C-115.08861872 299.12553715 -115.04393195 301.86844422 -112.7644043 305.74072266 C-110.18253061 307.99049173 -107.89555932 308.80595636 -104.5949707 309.63110352 C-104.45961914 309.04844727 -104.32426758 308.46579102 -104.18481445 307.86547852 C-99.84233672 291.32765912 -87.8118227 276.92132363 -73.5949707 267.63110352 C-62.81951142 261.52117524 -51.59832159 258.39146223 -39.5949707 255.63110352 C-38.92512146 255.47687927 -38.25527222 255.32265503 -37.56512451 255.16375732 C-30.46431068 253.53009295 -23.36247109 251.90113001 -16.25219727 250.30908203 C-15.49888626 250.13959549 -14.74557526 249.97010895 -13.96943665 249.79548645 C-12.53762737 249.47361581 -11.10534214 249.1538532 -9.67253113 248.83647156 C-6.03494833 248.02688491 -6.03494833 248.02688491 -2.5949707 246.63110352 C-3.14024414 246.13223633 -3.68551758 245.63336914 -4.24731445 245.11938477 C-16.31667226 233.62770562 -25.77568268 219.26490286 -28.5949707 202.63110352 C-29.8737207 202.42485352 -31.1524707 202.21860352 -32.4699707 202.00610352 C-41.76981127 199.90378477 -49.76919221 194.09460086 -55.5949707 186.63110352 C-61.48040943 177.04437776 -64.95092258 166.95330167 -63.5949707 155.63110352 C-61.37845714 146.61392335 -57.24681924 139.04016886 -49.5949707 133.63110352 C-50.20645317 128.4229597 -52.66639064 124.13279321 -54.9699707 119.50610352 C-63.45189953 102.05865628 -66.46649092 84.55738678 -60.5949707 65.63110352 C-52.83805871 46.48507471 -38.91726853 32.79225243 -20.5949707 23.63110352 C-19.9302379 21.88559573 -19.9302379 21.88559573 -19.48168945 19.77172852 C-19.18681641 18.59223633 -19.18681641 18.59223633 -18.88598633 17.38891602 C-18.48783437 15.73445932 -18.09704102 14.0782121 -17.71411133 12.42016602 C-17.51366211 11.62868164 -17.31321289 10.83719727 -17.10668945 10.02172852 C-16.93613037 9.30017578 -16.76557129 8.57862305 -16.58984375 7.83520508 C-13.02909149 -0.05349957 -7.7013894 -0.08967228 0 0 Z M3.4050293 22.63110352 C3.07576109 24.22798196 2.74921931 25.82542274 2.42382812 27.4230957 C2.24169266 28.31260925 2.05955719 29.2021228 1.87190247 30.11859131 C-1.02645369 45.71630757 3.7619682 60.2459478 11.4050293 73.63110352 C13.45220092 75.67827514 17.77427616 74.78523555 20.58984375 74.78881836 C21.44853561 74.79389908 22.30722748 74.7989798 23.19194031 74.80421448 C25.06515278 74.81494674 26.93837831 74.82355562 28.81160927 74.83033371 C31.78489003 74.84210666 34.75802448 74.86156073 37.73124695 74.88345337 C46.18829397 74.94508506 54.64533058 74.99890971 63.10253906 75.0324707 C68.27151556 75.05353694 73.44023287 75.08894819 78.60906029 75.1332283 C80.57240918 75.14730899 82.53580403 75.15609265 84.49920082 75.15928268 C100.79996453 75.18854121 114.81604027 75.98291314 127.47143555 87.51391602 C136.66373677 97.32168449 139.17151398 108.67919268 140.4050293 121.63110352 C149.56243836 107.89498992 151.83409606 90.32433106 149.1628418 74.31860352 C146.26725531 60.22873939 139.48935386 48.76758838 129.4050293 38.63110352 C128.80174805 37.99301758 128.1984668 37.35493164 127.5769043 36.69750977 C123.51314452 32.73092686 119.05053141 30.23532966 113.9675293 27.81860352 C113.05463135 27.38318237 113.05463135 27.38318237 112.12329102 26.93896484 C104.18511763 23.36815656 96.3985133 22.33063541 87.75439453 22.40405273 C86.83624466 22.40376068 85.91809479 22.40346863 84.97212219 22.40316772 C81.96918943 22.40454932 78.96651189 22.42005492 75.96362305 22.43579102 C73.86898433 22.43952531 71.77434385 22.44237032 69.67970276 22.44436646 C64.19049176 22.4519701 58.70138809 22.4715903 53.21221924 22.49377441 C47.60137381 22.51430351 41.9905109 22.52338323 36.37963867 22.53344727 C25.38805529 22.55483945 14.39655125 22.58893563 3.4050293 22.63110352 Z M-29.0168457 56.99438477 C-32.7513595 60.81377388 -35.22426679 64.87404748 -37.5949707 69.63110352 C-37.93399414 70.22922852 -38.27301758 70.82735352 -38.62231445 71.44360352 C-42.77163669 80.00994621 -41.68185612 92.36898365 -38.8449707 101.19360352 C-37.05458828 105.82941514 -34.95010953 110.25727427 -32.5949707 114.63110352 C-30.10470986 112.14084267 -30.07184231 110.62247443 -29.4074707 107.19360352 C-26.9156915 96.80288424 -21.18367884 88.90974533 -12.5949707 82.63110352 C-11.9349707 82.30110352 -11.2749707 81.97110352 -10.5949707 81.63110352 C-11.92674252 77.51918132 -13.41976236 73.51526632 -15.0324707 69.50610352 C-17.43958763 63.31739166 -19.15955429 57.10798243 -20.5949707 50.63110352 C-23.47746675 50.63110352 -27.01902926 55.1763718 -29.0168457 56.99438477 Z M-4.8449707 105.13110352 C-7.95947174 109.58039071 -8.84653919 112.44224951 -8.9387207 117.93579102 C-8.98319336 119.77077148 -8.98319336 119.77077148 -9.02856445 121.64282227 C-9.05047852 122.91770508 -9.07239258 124.19258789 -9.0949707 125.50610352 C-9.13852375 128.02449466 -9.19032194 130.54275961 -9.2512207 133.06079102 C-9.26991211 134.17695801 -9.28860352 135.293125 -9.30786133 136.44311523 C-9.67684428 140.54020659 -10.44303361 144.17866109 -13.0324707 147.44360352 C-17.29698281 150.68463271 -23.13861729 149.90736606 -28.2590332 149.97290039 C-33.26028438 150.16088448 -35.95647912 150.88725021 -39.5949707 154.63110352 C-41.65856009 158.75828229 -41.34834511 164.3029043 -39.9465332 168.63500977 C-37.05922675 174.15050543 -32.44739166 178.36336087 -26.7824707 180.88110352 C-23.73102101 181.64282534 -23.73102101 181.64282534 -21.13793945 182.01000977 C-20.25750977 182.1530957 -19.37708008 182.29618164 -18.4699707 182.44360352 C-17.64239258 182.55317383 -16.81481445 182.66274414 -15.9621582 182.77563477 C-12.60180825 183.99001866 -11.49190152 185.63206818 -9.5949707 188.63110352 C-8.57543945 191.90844727 -8.57543945 191.90844727 -7.7824707 195.56860352 C-3.57733192 212.79843339 5.86882931 225.892871 20.45581055 235.88110352 C36.24726082 245.25139454 52.8173735 248.04935258 70.6940918 243.78735352 C88.70757065 238.17473273 102.50047594 226.81766212 111.4675293 210.19360352 C114.28366319 204.42863832 116.07378492 198.52405871 117.66894531 192.33056641 C119.51384163 185.3842705 119.51384163 185.3842705 122.4050293 183.63110352 C124.97709123 182.95590149 127.48972722 182.39257506 130.0925293 181.88110352 C138.53403435 179.99639172 143.3425558 176.93770687 148.4050293 169.81860352 C149.80436346 165.35822587 150.12254733 161.26025213 149.4050293 156.63110352 C147.60856075 153.69687156 146.46092219 152.15904996 143.4050293 150.63110352 C139.86589446 150.43140312 136.33333355 150.2855713 132.78979492 150.20141602 C128.21621611 150.01068467 125.12101396 149.5732152 121.4050293 146.63110352 C119.14120532 143.23536755 119.1342506 141.92423256 119.0612793 137.93188477 C119.03163086 136.80459961 119.00198242 135.67731445 118.97143555 134.51586914 C118.94952148 133.33702148 118.92760742 132.15817383 118.9050293 130.94360352 C118.83328984 116.3702506 118.83328984 116.3702506 112.4050293 103.63110352 C105.16367976 97.11388893 98.4884056 96.48022986 88.95629883 96.48583984 C88.12946594 96.48248123 87.30263306 96.47912262 86.45074463 96.47566223 C83.72976154 96.46619871 81.00884029 96.46421148 78.2878418 96.46313477 C76.38744075 96.45991916 74.48703994 96.45655486 72.5866394 96.45304871 C68.60731431 96.44706906 64.62801091 96.44520763 60.64868164 96.44580078 C55.56247356 96.44590238 50.47640517 96.43224771 45.39023018 96.41502857 C41.46616992 96.40388295 37.54214316 96.40188236 33.6180687 96.40241051 C31.74348341 96.40123435 29.86889716 96.39683314 27.99432755 96.38907814 C25.36696978 96.37922575 22.73991194 96.38217683 20.11254883 96.38818359 C18.96358627 96.37975433 18.96358627 96.37975433 17.79141235 96.37115479 C8.87043858 96.4227 1.35110202 98.24657827 -4.8449707 105.13110352 Z M22.4050293 261.63110352 C22.07600732 276.19946565 21.78049254 289.34179517 32.33081055 300.70532227 C39.23501942 307.10009437 46.67729039 310.0207502 56.16674805 309.84204102 C65.08907352 309.00119359 72.17073115 305.3550824 78.12768555 298.70922852 C87.15688221 287.26189318 86.55560299 275.41696156 86.4050293 261.63110352 C85.73858398 261.82446289 85.07213867 262.01782227 84.38549805 262.21704102 C81.401026 263.06020654 78.40784145 263.85581826 75.4050293 264.63110352 C74.58776367 264.84379883 73.77049805 265.05649414 72.9284668 265.27563477 C55.87389714 269.03846839 38.90496463 266.4409706 22.4050293 261.63110352 Z M-4.83251953 270.56152344 C-6.1857708 270.86765816 -6.1857708 270.86765816 -7.56636047 271.17997742 C-11.74273343 272.13340545 -15.9177638 273.09253247 -20.09179688 274.05615234 C-22.28159008 274.5597032 -24.47233527 275.05913406 -26.6640625 275.55419922 C-48.41405215 280.46985199 -66.41074115 285.5813669 -79.3527832 305.31079102 C-80.75229546 307.48632485 -80.75229546 307.48632485 -80.5949707 309.63110352 C-79.95470947 309.6352124 -79.31444824 309.63932129 -78.65478516 309.64355469 C-75.73809166 309.67656389 -72.82346686 309.74721378 -69.9074707 309.81860352 C-68.39636719 309.82730469 -68.39636719 309.82730469 -66.85473633 309.83618164 C-59.33592167 310.05951277 -59.33592167 310.05951277 -55.45043945 313.05688477 C-52.70108608 316.87125081 -52.14019688 318.90145572 -52.5949707 323.63110352 C-55.75286544 329.21005088 -55.75286544 329.21005088 -58.5949707 330.63110352 C-60.77171853 330.78579719 -62.95280551 330.88112457 -65.1340332 330.94750977 C-66.43598633 330.9894043 -67.73793945 331.03129883 -69.0793457 331.07446289 C-70.45955115 331.11427651 -71.83975953 331.15398874 -73.2199707 331.19360352 C-74.60800485 331.23679759 -75.99602598 331.28041217 -77.3840332 331.32446289 C-80.78757327 331.43082352 -84.19118848 331.53285066 -87.5949707 331.63110352 C-90.71661625 339.70742396 -93.1384283 347.91876925 -95.52099609 356.23803711 C-96.02715624 357.99491103 -96.54014458 359.74983259 -97.06005859 361.50268555 C-102.81724328 380.60315678 -102.81724328 380.60315678 -98.5949707 399.63110352 C-94.33871695 407.03862206 -88.29538123 411.65693109 -80.4699707 414.94360352 C-73.73724945 416.55360208 -67.2156362 416.77609163 -60.33624268 416.76481628 C-58.80758092 416.76821462 -58.80758092 416.76821462 -57.2480371 416.77168161 C-53.84055806 416.77800073 -50.43311901 416.77719358 -47.02563477 416.77636719 C-44.57942656 416.77935999 -42.13321883 416.7827628 -39.68701172 416.7865448 C-33.73592038 416.79445987 -27.78484471 416.79759894 -21.83374956 416.79815718 C-16.99371563 416.79863311 -12.15368494 416.80069173 -7.31365204 416.8038578 C6.42365238 416.81266039 20.16094901 416.81727784 33.89825627 416.81652733 C34.63815739 416.81648737 35.3780585 416.81644742 36.14038086 416.81640625 C36.88119063 416.81636537 37.62200039 416.81632449 38.38525894 416.81628237 C50.38573582 416.81587609 62.3861813 416.82544209 74.3866491 416.83954462 C86.72327144 416.8539272 99.05987848 416.86081375 111.39650941 416.85995084 C118.31667803 416.8596195 125.23681374 416.86233873 132.15697479 416.87312889 C138.66751149 416.88321567 145.17799672 416.88287932 151.6885376 416.87561226 C154.07373405 416.87456816 156.45893485 416.87691893 158.84412384 416.88297272 C162.10895246 416.89072029 165.37354299 416.88602945 168.6383667 416.87834167 C170.04224817 416.88605702 170.04224817 416.88605702 171.47449088 416.89392823 C183.1932873 416.83326826 192.19609184 415.1180715 201.0925293 407.25610352 C209.00878006 398.27008914 211.13675318 390.66903524 210.4050293 378.63110352 C209.73101733 374.81090775 208.70635274 371.1462688 207.59643555 367.43188477 C207.31025864 366.43021774 207.02408173 365.42855072 206.72923279 364.39653015 C205.8234039 361.24107689 204.8954967 358.09260766 203.9675293 354.94360352 C203.34831088 352.79100518 202.73046004 350.63801295 202.11401367 348.48461914 C200.42472641 342.62730937 200.42472641 342.62730937 198.71191406 336.77685547 C198.36882957 335.60870049 198.36882957 335.60870049 198.01881409 334.41694641 C197.55096561 332.63074659 197.55096561 332.63074659 196.4050293 331.63110352 C194.31823812 331.53360404 192.22845433 331.49905191 190.1394043 331.49047852 C188.21547852 331.46147461 188.21547852 331.46147461 186.25268555 331.43188477 C184.20731208 331.40298009 182.16302218 331.38110543 180.11743164 331.38061523 C178.14542222 331.37726717 176.17355999 331.34047747 174.2019043 331.30297852 C173.01951172 331.29363281 171.83711914 331.28428711 170.61889648 331.2746582 C166.51436815 330.45275478 165.03568004 328.80975642 162.4050293 325.63110352 C160.97198865 322.76502223 161.09858774 320.81809569 161.4050293 317.63110352 C164.56292403 312.05215615 164.56292403 312.05215615 167.4050293 310.63110352 C169.07068679 310.47887379 170.74159425 310.38193136 172.4128418 310.31469727 C173.39897461 310.27280273 174.38510742 310.2309082 175.40112305 310.18774414 C176.43366211 310.14842773 177.46620117 310.10911133 178.5300293 310.06860352 C179.57030273 310.02541992 180.61057617 309.98223633 181.68237305 309.93774414 C184.25645458 309.83147472 186.83063438 309.72943769 189.4050293 309.63110352 C183.12972967 296.11717231 173.04600427 287.09175817 159.24223328 281.64071655 C154.55932352 279.97431302 149.77700814 278.90253046 144.9284668 277.83422852 C143.87720612 277.59573181 142.82594543 277.35723511 141.74282837 277.11151123 C138.42358003 276.36032252 135.10191477 275.62053294 131.7800293 274.88110352 C129.51293189 274.37013987 127.24600296 273.85842814 124.97924805 273.34594727 C119.45642537 272.09901627 113.9315791 270.86140401 108.4050293 269.63110352 C108.32740608 270.48834267 108.32740608 270.48834267 108.24821472 271.36289978 C108.00782558 273.98278853 107.75922501 276.60183747 107.51049805 279.22094727 C107.42924683 280.11986694 107.34799561 281.01878662 107.26428223 281.94494629 C105.94193256 295.68670348 100.90407158 308.35214601 90.6003418 317.93969727 C77.16332398 328.2924174 63.24393091 331.84715258 46.4050293 330.63110352 C32.2615319 328.62255951 20.16302538 321.25337438 11.3659668 310.02954102 C4.50488001 299.89848946 1.54856188 288.91375194 0.8425293 276.81860352 C0.7993457 276.12573242 0.75616211 275.43286133 0.71166992 274.71899414 C0.60641477 273.02321665 0.50530066 271.32718299 0.4050293 269.63110352 C-1.37911615 269.63110352 -3.09897568 270.16905499 -4.83251953 270.56152344 Z " fill="#000000" transform="translate(141.594970703125,54.368896484375)"/>
<path d="M0 0 C1.50208511 -0.01925285 1.50208511 -0.01925285 3.03451538 -0.03889465 C4.11061066 -0.04628159 5.18670593 -0.05366852 6.29541016 -0.0612793 C7.40751862 -0.06935104 8.51962708 -0.07742279 9.66543579 -0.08573914 C12.01733854 -0.09956197 14.36926121 -0.11029216 16.72119141 -0.11816406 C20.31402529 -0.13539995 23.90594436 -0.17930629 27.49853516 -0.22338867 C29.78498673 -0.23351405 32.07144612 -0.24203063 34.35791016 -0.2487793 C35.96598038 -0.27504143 35.96598038 -0.27504143 37.60653687 -0.30183411 C43.7087449 -0.284118 47.33003674 0.0659901 51.95947266 4.17700195 C53.96490231 7.0459594 54.22587531 9.16401414 53.89697266 12.61450195 C53.84412109 13.35571289 53.79126953 14.09692383 53.73681641 14.8605957 C52.53173195 18.45162627 50.97876388 19.86349455 47.95947266 22.17700195 C44.37998672 22.89967839 40.85845401 22.82704605 37.21728516 22.77856445 C36.17555145 22.78657074 35.13381775 22.79457703 34.06051636 22.80282593 C30.73477214 22.82588701 27.41024968 22.81643884 24.08447266 22.80200195 C20.76606511 22.79814838 17.44819943 22.80165392 14.12985229 22.82260132 C12.06748663 22.83464145 10.00496885 22.8321026 7.94265747 22.81289673 C2.17878093 22.83520994 -1.986964 23.30953534 -7.04052734 26.17700195 C-9.18107015 29.38781616 -9.2931588 30.24183326 -9.31176758 33.9362793 C-9.32195419 34.90093109 -9.33214081 35.86558289 -9.34263611 36.85946655 C-9.34477615 37.90011261 -9.3469162 38.94075867 -9.34912109 40.01293945 C-9.37428098 42.21346294 -9.39967901 44.41398371 -9.42529297 46.61450195 C-9.45404337 50.08617452 -9.47805869 53.55779998 -9.49682617 57.02954102 C-9.51847637 60.37842286 -9.55791713 63.72674949 -9.59912109 67.07543945 C-9.59923691 68.11203705 -9.59935272 69.14863464 -9.59947205 70.21664429 C-9.72142373 79.09375075 -9.72142373 79.09375075 -13.04052734 83.17700195 C-13.49685547 83.76610352 -13.95318359 84.35520508 -14.42333984 84.9621582 C-17.25712249 87.09091763 -20.17439799 86.63505883 -23.59130859 86.5402832 C-26.99498218 86.0354321 -28.74909403 84.69018688 -31.04052734 82.17700195 C-32.30567484 79.64670697 -32.20213403 77.8325226 -32.24926758 74.99975586 C-32.2685582 73.91747711 -32.28784882 72.83519836 -32.307724 71.72012329 C-32.36560624 66.7332897 -32.41481819 61.74660232 -32.44555664 56.75952148 C-32.46705799 54.13894408 -32.50106569 51.51843694 -32.5480957 48.89819336 C-32.61549517 45.10799255 -32.64263109 41.31928221 -32.66162109 37.52856445 C-32.68945175 36.37184235 -32.71728241 35.21512024 -32.74595642 34.02334595 C-32.72293284 24.7807345 -30.27438424 16.96571259 -24.06150818 9.93862915 C-17.49534612 3.62979328 -9.07055752 0.10158068 0 0 Z " fill="#000000" transform="translate(36.04052734375,0.822998046875)"/>
<path d="M0 0 C1.48271896 -0.01429802 1.48271896 -0.01429802 2.99539185 -0.02888489 C4.59071243 -0.02751778 4.59071243 -0.02751778 6.21826172 -0.02612305 C7.32088348 -0.03040817 8.42350525 -0.0346933 9.55953979 -0.03910828 C11.89466669 -0.04485159 14.22981148 -0.04535184 16.56494141 -0.04101562 C20.11376105 -0.03787208 23.66173362 -0.06125851 27.21044922 -0.08666992 C29.48388567 -0.08894474 31.75732436 -0.08964556 34.03076172 -0.08862305 C35.08216339 -0.09783279 36.13356506 -0.10704254 37.21682739 -0.11653137 C48.28342718 -0.04810566 57.04883119 2.3615277 65.02294922 10.2746582 C72.13242731 19.02829825 73.33761143 26.66181942 73.35888672 37.71606445 C73.36887192 39.51671608 73.36887192 39.51671608 73.37905884 41.35374451 C73.38916476 43.88620474 73.3938765 46.4186915 73.39355469 48.95117188 C73.39793776 52.82702227 73.43430878 56.70174274 73.47216797 60.57739258 C73.47803449 63.04027931 73.48200498 65.50317145 73.48388672 67.96606445 C73.49825775 69.12449356 73.51262878 70.28292267 73.5274353 71.47645569 C73.4817702 79.50181727 73.4817702 79.50181727 71.11914062 83.48144531 C67.36018784 86.69708801 64.32694785 86.66495082 59.50732422 86.63012695 C57.02294922 86.2746582 57.02294922 86.2746582 53.96044922 83.9621582 C51.36697466 80.36475801 50.89932905 77.83254675 50.89697266 73.51538086 C50.89316589 72.55072906 50.88935913 71.58607727 50.88543701 70.5921936 C50.88440979 69.55154755 50.88338257 68.51090149 50.88232422 67.4387207 C50.86399973 65.23818949 50.84442975 63.03766836 50.82373047 60.8371582 C50.79473283 57.36530512 50.77294844 53.89410131 50.77246094 50.42211914 C50.7691298 47.07289921 50.73460189 43.72518036 50.69482422 40.3762207 C50.70189392 39.33962311 50.70896362 38.30302551 50.71624756 37.23501587 C50.63608812 32.49365872 50.59116793 30.05096553 47.73095703 26.14331055 C43.88263253 23.48778623 40.85213207 23.15125865 36.24194336 23.14868164 C35.29738785 23.14487488 34.35283234 23.14106812 33.37965393 23.137146 C32.36604294 23.13611877 31.35243195 23.13509155 30.30810547 23.1340332 C28.15640212 23.11571159 26.0047091 23.09614189 23.85302734 23.07543945 C20.46458404 23.04643007 17.07680817 23.02465696 13.68823242 23.02416992 C10.41508927 23.02083896 7.1434822 22.98631776 3.87060547 22.9465332 C2.85901871 22.95360291 1.84743195 22.96067261 0.80519104 22.96795654 C-6.23356711 22.84603702 -6.23356711 22.84603702 -10.10205078 19.87304688 C-12.857462 16.05457792 -13.40309042 12.92832191 -12.97705078 8.2746582 C-9.95581815 2.12029544 -6.72761907 0.0357532 0 0 Z " fill="#000000" transform="translate(314.97705078125,0.725341796875)"/>
</svg>
